<svg width="239" height="222" viewBox="0 0 239 222" fill="none" xmlns="http://www.w3.org/2000/svg">
<path d="M234 116.5C234 171.437 183.34 217 119.5 217C55.6597 217 5 171.437 5 116.5C5 61.5627 55.6597 16 119.5 16C183.34 16 234 61.5627 234 116.5Z" stroke="white" stroke-width="10"/>
<line x1="68.9997" y1="111.055" x2="67.9887" y2="203.055" stroke="white" stroke-width="10"/>
<line x1="35.9997" y1="89.0515" x2="34.9997" y2="186.051" stroke="white" stroke-width="10"/>
<line x1="202" y1="89.0515" x2="201" y2="186.051" stroke="white" stroke-width="10"/>
<path d="M121.745 52.4212C124.187 51.1315 125.121 48.1065 123.831 45.6648C122.541 43.223 119.516 42.2891 117.075 43.5788L121.745 52.4212ZM35.6648 86.5788L31.2436 88.9141L35.9141 97.7564L40.3352 95.4212L35.6648 86.5788ZM117.075 43.5788L35.6648 86.5788L40.3352 95.4212L121.745 52.4212L117.075 43.5788Z" fill="white"/>
<path d="M197.61 95.3916L202.001 97.782L206.782 88.9988L202.39 86.6084L197.61 95.3916ZM123.39 43.6084C120.965 42.2882 117.929 43.1842 116.608 45.6096C115.288 48.035 116.184 51.0714 118.61 52.3916L123.39 43.6084ZM202.39 86.6084L123.39 43.6084L118.61 52.3916L197.61 95.3916L202.39 86.6084Z" fill="white"/>
<line x1="169.011" y1="111.053" x2="168" y2="206.053" stroke="white" stroke-width="10"/>
<line x1="103" y1="111" x2="103" y2="212" stroke="white" stroke-width="10"/>
<line x1="135" y1="111" x2="135" y2="212" stroke="white" stroke-width="10"/>
<line x1="166.984" y1="181.314" x2="65.9845" y2="181" stroke="white" stroke-width="10"/>
<line x1="164.984" y1="134.314" x2="63.9845" y2="134" stroke="white" stroke-width="10"/>
<line x1="55" y1="105" x2="36" y2="105" stroke="white" stroke-width="10" stroke-linecap="round"/>
<line x1="143" y1="37" x2="77" y2="37" stroke="white" stroke-width="10" stroke-linecap="round"/>
<line x1="162" y1="37" x2="156" y2="37" stroke="white" stroke-width="10" stroke-linecap="round"/>
<line x1="119.013" y1="5.00589" x2="119.006" y2="11.0059" stroke="white" stroke-width="10" stroke-linecap="round"/>
<line x1="55" y1="154" x2="36" y2="154" stroke="white" stroke-width="10" stroke-linecap="round"/>
<line x1="5" y1="-5" x2="24" y2="-5" transform="matrix(1 -1.0084e-08 -1.0084e-08 -1 177 149)" stroke="white" stroke-width="10" stroke-linecap="round"/>
<line x1="5" y1="-5" x2="24" y2="-5" transform="matrix(1 -1.0084e-08 -1.0084e-08 -1 177 100)" stroke="white" stroke-width="10" stroke-linecap="round"/>
<line x1="174" y1="110" x2="64" y2="110" stroke="white" stroke-width="10"/>
<path d="M69 106C75 69.1943 162.5 68.1427 169 106" stroke="white" stroke-width="10"/>
<path d="M78.5677 73C69 -12 172.602 -9.63838 158.71 73" stroke="white" stroke-width="10"/>
</svg>
